<svg xmlns="http://www.w3.org/2000/svg" viewBox="0 0 960 780" width="960" height="780" font-family="'Segoe UI', 'Helvetica Neue', Arial, sans-serif">
  <defs>
    <marker id="arr-blue" markerWidth="8" markerHeight="8" refX="6" refY="3" orient="auto">
      <path d="M0,0 L0,6 L8,3 z" fill="#4a90d9"/>
    </marker>
    <marker id="arr-green" markerWidth="8" markerHeight="8" refX="6" refY="3" orient="auto">
      <path d="M0,0 L0,6 L8,3 z" fill="#4caf76"/>
    </marker>
    <marker id="arr-orange" markerWidth="8" markerHeight="8" refX="6" refY="3" orient="auto">
      <path d="M0,0 L0,6 L8,3 z" fill="#e8924a"/>
    </marker>
    <marker id="arr-gray" markerWidth="8" markerHeight="8" refX="6" refY="3" orient="auto">
      <path d="M0,0 L0,6 L8,3 z" fill="#888"/>
    </marker>
    <marker id="arr-purple" markerWidth="8" markerHeight="8" refX="6" refY="3" orient="auto">
      <path d="M0,0 L0,6 L8,3 z" fill="#a06ee0"/>
    </marker>
    <filter id="shadow" x="-10%" y="-10%" width="120%" height="120%">
      <feDropShadow dx="0" dy="2" stdDeviation="3" flood-color="#000" flood-opacity="0.4"/>
    </filter>
  </defs>

  <!-- Background -->
  <rect width="960" height="780" fill="#0f0f0f" rx="16"/>

  <!-- Title -->
  <text x="480" y="36" text-anchor="middle" fill="#e0e0e0" font-size="17" font-weight="700" letter-spacing="1">就活インタビューAI — システムアーキテクチャ</text>

  <!-- ===== USER ===== -->
  <rect x="400" y="56" width="160" height="52" rx="10" fill="#2a1a45" stroke="#a06ee0" stroke-width="1.5" filter="url(#shadow)"/>
  <text x="480" y="77" text-anchor="middle" fill="#c8a0f0" font-size="13" font-weight="700">👤 ユーザー</text>
  <text x="480" y="97" text-anchor="middle" fill="#9070c0" font-size="10">Job Seeker</text>

  <!-- User → Sidebar arrow -->
  <line x1="480" y1="108" x2="480" y2="136" stroke="#a06ee0" stroke-width="1.5" marker-end="url(#arr-purple)"/>

  <!-- ===== UI LAYER ===== -->
  <rect x="30" y="148" width="900" height="178" rx="12" fill="#0d1f38" stroke="#4a90d9" stroke-width="1.5"/>
  <text x="52" y="170" fill="#4a90d9" font-size="12" font-weight="700">🖥️  Streamlit UI</text>

  <!-- Sidebar node (center-top of UI layer) -->
  <rect x="370" y="178" width="220" height="56" rx="9" fill="#1a3560" stroke="#4a90d9" stroke-width="1.5" filter="url(#shadow)"/>
  <text x="480" y="200" text-anchor="middle" fill="#a8d4f5" font-size="12" font-weight="700">🧭 サイドバー</text>
  <text x="480" y="217" text-anchor="middle" fill="#6090b0" font-size="10">ナビ · RAG · セッション管理</text>

  <!-- Page nodes row -->
  <!-- P1 自己PR -->
  <rect x="40" y="266" width="118" height="48" rx="8" fill="#1a3560" stroke="#4a90d9" stroke-width="1.2"/>
  <text x="99" y="286" text-anchor="middle" fill="#a8d4f5" font-size="11" font-weight="600">📄 自己PR作成</text>
  <text x="99" y="303" text-anchor="middle" fill="#6090b0" font-size="9">PR作成・評価・微調整</text>

  <!-- P2 Career -->
  <rect x="172" y="266" width="118" height="48" rx="8" fill="#1a3560" stroke="#4a90d9" stroke-width="1.2"/>
  <text x="231" y="284" text-anchor="middle" fill="#a8d4f5" font-size="11" font-weight="600">🤖 AIキャリア</text>
  <text x="231" y="298" text-anchor="middle" fill="#a8d4f5" font-size="11" font-weight="600">アドバイザー</text>
  <text x="231" y="311" text-anchor="middle" fill="#6090b0" font-size="9">フリーチャット相談</text>

  <!-- P3 Personality -->
  <rect x="304" y="266" width="118" height="48" rx="8" fill="#1a3560" stroke="#4a90d9" stroke-width="1.2"/>
  <text x="363" y="286" text-anchor="middle" fill="#a8d4f5" font-size="11" font-weight="600">📊 性格診断</text>
  <text x="363" y="303" text-anchor="middle" fill="#6090b0" font-size="9">Big Five · 適性判定</text>

  <!-- P4 Question -->
  <rect x="436" y="266" width="118" height="48" rx="8" fill="#1a3560" stroke="#4a90d9" stroke-width="1.2"/>
  <text x="495" y="286" text-anchor="middle" fill="#a8d4f5" font-size="11" font-weight="600">🎯 想定質問生成</text>
  <text x="495" y="303" text-anchor="middle" fill="#6090b0" font-size="9">8問 + 模範回答</text>

  <!-- P5 Mock Interview -->
  <rect x="568" y="266" width="118" height="48" rx="8" fill="#1a3560" stroke="#4a90d9" stroke-width="1.2"/>
  <text x="627" y="286" text-anchor="middle" fill="#a8d4f5" font-size="11" font-weight="600">🎤 AI模擬面接</text>
  <text x="627" y="303" text-anchor="middle" fill="#6090b0" font-size="9">4ペルソナ · 5テーマ</text>

  <!-- P6 Company Matrix -->
  <rect x="700" y="266" width="118" height="48" rx="8" fill="#1a3560" stroke="#4a90d9" stroke-width="1.2"/>
  <text x="759" y="286" text-anchor="middle" fill="#a8d4f5" font-size="11" font-weight="600">🏢 企業比較</text>
  <text x="759" y="303" text-anchor="middle" fill="#6090b0" font-size="9">最大8社 · マトリクス</text>

  <!-- P7 History -->
  <rect x="832" y="266" width="84" height="48" rx="8" fill="#1a3560" stroke="#4a90d9" stroke-width="1.2"/>
  <text x="874" y="286" text-anchor="middle" fill="#a8d4f5" font-size="11" font-weight="600">✅ 面接</text>
  <text x="874" y="300" text-anchor="middle" fill="#a8d4f5" font-size="11" font-weight="600">履歴</text>
  <text x="874" y="311" text-anchor="middle" fill="#6090b0" font-size="9">SQLite連携</text>

  <!-- Sidebar → Pages (fan out lines, blue) -->
  <line x1="435" y1="206" x2="99" y2="266" stroke="#4a90d9" stroke-width="1" stroke-dasharray="4,3" marker-end="url(#arr-blue)"/>
  <line x1="450" y1="210" x2="231" y2="266" stroke="#4a90d9" stroke-width="1" stroke-dasharray="4,3" marker-end="url(#arr-blue)"/>
  <line x1="463" y1="213" x2="363" y2="266" stroke="#4a90d9" stroke-width="1" stroke-dasharray="4,3" marker-end="url(#arr-blue)"/>
  <line x1="480" y1="234" x2="495" y2="266" stroke="#4a90d9" stroke-width="1" stroke-dasharray="4,3" marker-end="url(#arr-blue)"/>
  <line x1="497" y1="213" x2="627" y2="266" stroke="#4a90d9" stroke-width="1" stroke-dasharray="4,3" marker-end="url(#arr-blue)"/>
  <line x1="512" y1="210" x2="759" y2="266" stroke="#4a90d9" stroke-width="1" stroke-dasharray="4,3" marker-end="url(#arr-blue)"/>
  <line x1="525" y1="206" x2="874" y2="266" stroke="#4a90d9" stroke-width="1" stroke-dasharray="4,3" marker-end="url(#arr-blue)"/>

  <!-- ===== BUSINESS LOGIC LAYER ===== -->
  <rect x="30" y="358" width="900" height="168" rx="12" fill="#0d2a18" stroke="#4caf76" stroke-width="1.5"/>
  <text x="52" y="380" fill="#4caf76" font-size="12" font-weight="700">⚙️  ビジネスロジック</text>

  <!-- IE interview_engine -->
  <rect x="48" y="390" width="128" height="52" rx="8" fill="#1a3d25" stroke="#4caf76" stroke-width="1.2" filter="url(#shadow)"/>
  <text x="112" y="410" text-anchor="middle" fill="#a8f5c2" font-size="11" font-weight="600">💬 interview_engine</text>
  <text x="112" y="425" text-anchor="middle" fill="#608070" font-size="9">動的インタビュー</text>
  <text x="112" y="437" text-anchor="middle" fill="#608070" font-size="9">4テーマ · 深掘り</text>

  <!-- PRG pr_generation -->
  <rect x="192" y="390" width="128" height="52" rx="8" fill="#1a3d25" stroke="#4caf76" stroke-width="1.2" filter="url(#shadow)"/>
  <text x="256" y="410" text-anchor="middle" fill="#a8f5c2" font-size="11" font-weight="600">✏️ pr_generation</text>
  <text x="256" y="425" text-anchor="middle" fill="#608070" font-size="9">自己PR生成・評価</text>
  <text x="256" y="437" text-anchor="middle" fill="#608070" font-size="9">3案 · セルフ評価</text>

  <!-- QP question_prediction -->
  <rect x="336" y="390" width="128" height="52" rx="8" fill="#1a3d25" stroke="#4caf76" stroke-width="1.2" filter="url(#shadow)"/>
  <text x="400" y="408" text-anchor="middle" fill="#a8f5c2" font-size="11" font-weight="600">❓ question_</text>
  <text x="400" y="422" text-anchor="middle" fill="#a8f5c2" font-size="11" font-weight="600">prediction</text>
  <text x="400" y="437" text-anchor="middle" fill="#608070" font-size="9">想定質問 + 模範回答</text>

  <!-- SG summary_generation -->
  <rect x="480" y="390" width="128" height="52" rx="8" fill="#1a3d25" stroke="#4caf76" stroke-width="1.2" filter="url(#shadow)"/>
  <text x="544" y="408" text-anchor="middle" fill="#a8f5c2" font-size="11" font-weight="600">📝 summary_</text>
  <text x="544" y="422" text-anchor="middle" fill="#a8f5c2" font-size="11" font-weight="600">generation</text>
  <text x="544" y="437" text-anchor="middle" fill="#608070" font-size="9">強み · 業界フィット度</text>

  <!-- PA personality_assessment -->
  <rect x="624" y="390" width="128" height="52" rx="8" fill="#1a3d25" stroke="#4caf76" stroke-width="1.2" filter="url(#shadow)"/>
  <text x="688" y="408" text-anchor="middle" fill="#a8f5c2" font-size="11" font-weight="600">🧠 personality_</text>
  <text x="688" y="422" text-anchor="middle" fill="#a8f5c2" font-size="11" font-weight="600">assessment</text>
  <text x="688" y="437" text-anchor="middle" fill="#608070" font-size="9">Big Five 30問</text>

  <!-- MIE mock_interview_engine -->
  <rect x="48" y="456" width="128" height="52" rx="8" fill="#1a3d25" stroke="#4caf76" stroke-width="1.2" filter="url(#shadow)"/>
  <text x="112" y="474" text-anchor="middle" fill="#a8f5c2" font-size="11" font-weight="600">🎭 mock_interview</text>
  <text x="112" y="488" text-anchor="middle" fill="#a8f5c2" font-size="11" font-weight="600">_engine</text>
  <text x="112" y="500" text-anchor="middle" fill="#608070" font-size="9">模擬面接 · 評価</text>

  <!-- CM company_matrix -->
  <rect x="768" y="390" width="128" height="52" rx="8" fill="#1a3d25" stroke="#4caf76" stroke-width="1.2" filter="url(#shadow)"/>
  <text x="832" y="410" text-anchor="middle" fill="#a8f5c2" font-size="11" font-weight="600">📊 company_matrix</text>
  <text x="832" y="425" text-anchor="middle" fill="#608070" font-size="9">志望動機 · 比較</text>
  <text x="832" y="437" text-anchor="middle" fill="#608070" font-size="9">差別化ポイント</text>

  <!-- RAG rag engine -->
  <rect x="768" y="456" width="128" height="52" rx="8" fill="#1a3d25" stroke="#4caf76" stroke-width="1.2" filter="url(#shadow)"/>
  <text x="832" y="476" text-anchor="middle" fill="#a8f5c2" font-size="11" font-weight="600">🔍 rag</text>
  <text x="832" y="491" text-anchor="middle" fill="#608070" font-size="9">RAGエンジン</text>
  <text x="832" y="503" text-anchor="middle" fill="#608070" font-size="9">埋め込み · 類似検索</text>

  <!-- UI → Logic arrows (solid green) -->
  <!-- P1 → IE -->
  <line x1="99" y1="314" x2="99" y2="390" stroke="#4caf76" stroke-width="1.5" marker-end="url(#arr-green)"/>
  <!-- P1 → QP -->
  <path d="M158,314 Q230,345 336,390" fill="none" stroke="#4caf76" stroke-width="1.2" marker-end="url(#arr-green)"/>
  <!-- P1 → SG -->
  <path d="M158,320 Q290,352 480,390" fill="none" stroke="#4caf76" stroke-width="1.2" marker-end="url(#arr-green)"/>
  <!-- P2 → IE -->
  <path d="M231,314 Q180,352 176,390" fill="none" stroke="#4caf76" stroke-width="1.2" marker-end="url(#arr-green)"/>
  <!-- P3 → PA -->
  <line x1="363" y1="314" x2="688" y2="390" stroke="#4caf76" stroke-width="1.2" marker-end="url(#arr-green)"/>
  <!-- P4 → QP -->
  <line x1="495" y1="314" x2="420" y2="390" stroke="#4caf76" stroke-width="1.5" marker-end="url(#arr-green)"/>
  <!-- P5 → MIE -->
  <path d="M627,314 Q400,354 176,456" fill="none" stroke="#4caf76" stroke-width="1.2" marker-end="url(#arr-green)"/>
  <!-- P6 → CM -->
  <line x1="759" y1="314" x2="832" y2="390" stroke="#4caf76" stroke-width="1.5" marker-end="url(#arr-green)"/>
  <!-- Sidebar → RAG -->
  <path d="M570,220 Q760,260 832,456" fill="none" stroke="#4a90d9" stroke-width="1.2" stroke-dasharray="4,3" marker-end="url(#arr-blue)"/>

  <!-- IE → PRG (logic internal) -->
  <line x1="176" y1="416" x2="192" y2="416" stroke="#4caf76" stroke-width="1.5" marker-end="url(#arr-green)"/>

  <!-- ===== INFRA LAYER ===== -->
  <rect x="30" y="560" width="900" height="178" rx="12" fill="#2a1508" stroke="#e8924a" stroke-width="1.5"/>
  <text x="52" y="582" fill="#e8924a" font-size="12" font-weight="700">🏗️  インフラ</text>

  <!-- Safety Layer -->
  <rect x="200" y="592" width="220" height="70" rx="9" fill="#3d1e08" stroke="#e8924a" stroke-width="1.5" filter="url(#shadow)"/>
  <text x="310" y="613" text-anchor="middle" fill="#f5c090" font-size="12" font-weight="700">🛡️ Safety Layer</text>
  <text x="310" y="630" text-anchor="middle" fill="#a06040" font-size="9">Prompt Injection 対策</text>
  <text x="310" y="643" text-anchor="middle" fill="#a06040" font-size="9">ハルシネーション抑制</text>
  <text x="310" y="656" text-anchor="middle" fill="#a06040" font-size="9">JSON検証 · リトライ(最大2回)</text>

  <!-- SQLite -->
  <rect x="490" y="592" width="180" height="70" rx="9" fill="#3d1e08" stroke="#e8924a" stroke-width="1.5" filter="url(#shadow)"/>
  <text x="580" y="613" text-anchor="middle" fill="#f5c090" font-size="12" font-weight="700">🗄️ SQLite</text>
  <text x="580" y="632" text-anchor="middle" fill="#a06040" font-size="9">ローカルDB（外部送信なし）</text>
  <text x="580" y="648" text-anchor="middle" fill="#a06040" font-size="9">sessions / messages</text>
  <text x="580" y="662" text-anchor="middle" fill="#a06040" font-size="9">knowledge_bases / chunks</text>

  <!-- Ollama -->
  <rect x="200" y="682" width="220" height="48" rx="9" fill="#3d1e08" stroke="#e8924a" stroke-width="1.5" filter="url(#shadow)"/>
  <text x="310" y="702" text-anchor="middle" fill="#f5c090" font-size="12" font-weight="700">🦙 Ollama</text>
  <text x="310" y="719" text-anchor="middle" fill="#a06040" font-size="9">ローカルLLM · qwen3:8b / nomic-embed-text</text>

  <!-- Logic → Safety (orange) -->
  <line x1="112" y1="508" x2="250" y2="592" stroke="#e8924a" stroke-width="1.2" marker-end="url(#arr-orange)"/>
  <line x1="256" y1="442" x2="280" y2="592" stroke="#e8924a" stroke-width="1.2" marker-end="url(#arr-orange)"/>
  <line x1="400" y1="442" x2="310" y2="592" stroke="#e8924a" stroke-width="1.2" marker-end="url(#arr-orange)"/>
  <line x1="544" y1="442" x2="315" y2="592" stroke="#e8924a" stroke-width="1.2" marker-end="url(#arr-orange)"/>
  <line x1="688" y1="442" x2="370" y2="592" stroke="#e8924a" stroke-width="1.2" marker-end="url(#arr-orange)"/>
  <line x1="832" y1="442" x2="395" y2="592" stroke="#e8924a" stroke-width="1.2" marker-end="url(#arr-orange)"/>

  <!-- Safety → Ollama -->
  <line x1="310" y1="662" x2="310" y2="682" stroke="#e8924a" stroke-width="2" marker-end="url(#arr-orange)"/>

  <!-- Logic → SQLite (gray) -->
  <line x1="112" y1="508" x2="510" y2="592" stroke="#888" stroke-width="1" stroke-dasharray="3,3" marker-end="url(#arr-gray)"/>
  <line x1="256" y1="442" x2="520" y2="592" stroke="#888" stroke-width="1" stroke-dasharray="3,3" marker-end="url(#arr-gray)"/>
  <line x1="400" y1="442" x2="540" y2="592" stroke="#888" stroke-width="1" stroke-dasharray="3,3" marker-end="url(#arr-gray)"/>
  <line x1="544" y1="442" x2="555" y2="592" stroke="#888" stroke-width="1" stroke-dasharray="3,3" marker-end="url(#arr-gray)"/>
  <line x1="688" y1="442" x2="610" y2="592" stroke="#888" stroke-width="1" stroke-dasharray="3,3" marker-end="url(#arr-gray)"/>
  <line x1="832" y1="508" x2="640" y2="592" stroke="#888" stroke-width="1" stroke-dasharray="3,3" marker-end="url(#arr-gray)"/>
  <!-- P7 → SQLite -->
  <path d="M874,314 Q920,500 660,592" fill="none" stroke="#888" stroke-width="1" stroke-dasharray="3,3" marker-end="url(#arr-gray)"/>

  <!-- ===== LEGEND ===== -->
  <rect x="30" y="746" width="900" height="26" rx="6" fill="#1a1a1a"/>
  <text x="52" y="763" fill="#888" font-size="10">凡例:</text>
  <!-- blue solid -->
  <line x1="90" y1="759" x2="118" y2="759" stroke="#4a90d9" stroke-width="1.5" stroke-dasharray="4,3" marker-end="url(#arr-blue)"/>
  <text x="122" y="763" fill="#888" font-size="10">UI接続</text>
  <!-- green solid -->
  <line x1="175" y1="759" x2="203" y2="759" stroke="#4caf76" stroke-width="1.5" marker-end="url(#arr-green)"/>
  <text x="207" y="763" fill="#888" font-size="10">UI→ロジック</text>
  <!-- green IE→PRG -->
  <line x1="282" y1="759" x2="310" y2="759" stroke="#4caf76" stroke-width="1.5" marker-end="url(#arr-green)"/>
  <text x="314" y="763" fill="#888" font-size="10">ロジック内部</text>
  <!-- orange -->
  <line x1="394" y1="759" x2="422" y2="759" stroke="#e8924a" stroke-width="1.5" marker-end="url(#arr-orange)"/>
  <text x="426" y="763" fill="#888" font-size="10">→ Safety Layer</text>
  <!-- orange thick Safety→Ollama -->
  <line x1="516" y1="759" x2="544" y2="759" stroke="#e8924a" stroke-width="2" marker-end="url(#arr-orange)"/>
  <text x="548" y="763" fill="#888" font-size="10">Safety→Ollama</text>
  <!-- gray dashed -->
  <line x1="638" y1="759" x2="666" y2="759" stroke="#888" stroke-width="1" stroke-dasharray="3,3" marker-end="url(#arr-gray)"/>
  <text x="670" y="763" fill="#888" font-size="10">→ SQLite保存</text>
</svg>
